<?xml version="1.0" encoding="utf-8"?>
<!-- Generator: Adobe Illustrator 25.2.3, SVG Export Plug-In . SVG Version: 6.00 Build 0)  -->
<svg version="1.1" id="Layer_1" xmlns="http://www.w3.org/2000/svg" xmlns:xlink="http://www.w3.org/1999/xlink" x="0px" y="0px"
	 viewBox="0 0 128 128" style="enable-background:new 0 0 128 128;" xml:space="preserve">
<style type="text/css">
	.st0{fill:#F0F0F0;}
	.st1{fill:#E4E4E4;}
</style>
<rect class="st0" width="128" height="128"/>
<g>
	<path class="st1" d="M68.9,62.5H33.1V33.1h50.2v22.4h5v-25c0-0.9-0.8-1.7-1.7-1.7H29.8c-0.9,0-1.7,0.8-1.7,1.7v34.4l-7.4,18.6
		c0,0.1-0.1,0.2-0.1,0.3c0,0,0,0,0,0.1c0,0.1,0,0.2,0,0.3c0,0,0,0,0,0v1.6c0,0.9,0.8,1.7,1.7,1.7h46.5V62.5z M52.5,77.1h11.4
		l1.5,4.8H50.9L52.5,77.1z"/>
	<g>
		<g>
			<g>
				<path class="st1" d="M74,57.7c-1.6,0-2.8,1.3-2.8,2.8v35.8c0,1.6,1.3,2.8,2.8,2.8h1.6V57.7H74z"/>
			</g>
		</g>
		<g>
			<g>
				<path class="st1" d="M104.5,57.7H102v9c0,0.7-0.3,1.3-0.9,1.6c-0.3,0.2-0.6,0.3-1,0.3c-0.3,0-0.6-0.1-0.9-0.2l-2.8-1.5l-2.8,1.5
					c-0.6,0.3-1.3,0.3-1.9,0c-0.6-0.3-0.9-0.9-0.9-1.6v-9H78.2v41.5h26.3c1.6,0,2.8-1.3,2.8-2.8V60.6
					C107.4,59,106.1,57.7,104.5,57.7z"/>
			</g>
		</g>
		<g>
			<g>
				<path class="st1" d="M93.4,57.8v7.8l2.1-1.1c0.3-0.2,0.6-0.2,0.9-0.2c0.3,0,0.6,0.1,0.9,0.2l2.1,1.1v-7.8H93.4z"/>
			</g>
		</g>
	</g>
</g>
</svg>
